<?xml version="1.0" encoding="utf-8"?>
<!-- Generator: Adobe Illustrator 15.0.2, SVG Export Plug-In . SVG Version: 6.00 Build 0)  -->
<!DOCTYPE svg PUBLIC "-//W3C//DTD SVG 1.1//EN" "http://www.w3.org/Graphics/SVG/1.1/DTD/svg11.dtd">
<svg version="1.1" xmlns="http://www.w3.org/2000/svg" xmlns:xlink="http://www.w3.org/1999/xlink" x="0px" y="0px" width="256px"
	 height="300.334px" viewBox="0 0 256 300.334" enable-background="new 0 0 256 300.334" xml:space="preserve">
<g id="Background">
	<circle fill="#CBBFA8" cx="128" cy="128" r="128"/>
</g>
<g id="Carl">
	<g id="CarlMask" opacity="0">
		<path fill="#D36A64" d="M194.402,205.945c-0.621-4.04,0.488-19.251-2.795-23.917c-11.807-16.774-45.174-23.608-47.438-27.396
			h-32.34c-2.265,3.788-35.63,10.622-47.435,27.396c-3.288,4.666-2.176,19.877-2.796,23.917c0,0,26.734,22.055,66.64,22.055
			C168.146,228,194.402,205.945,194.402,205.945z"/>
		<path fill="#F9E8B9" d="M143.782,136.789c0,0,1.07,9.861,0,18.937c-1.075,9.076-15.739,11.171-15.739,11.171
			s-14.664-2.095-15.736-11.171c-1.073-9.075,0-18.937,0-18.937"/>
		<path fill="#F2D8AA" d="M112.307,136.789c3.026,3.723,31.36,23.066,31.707,16.49c0.453-8.617-0.231-16.49-0.231-16.49H112.307z"/>
		<path fill="#C0CFD0" d="M87.419,80.048c0.367-0.474-3.686-28.488,0-35.011c3.688-6.521,8.349-12.735,8.969-16.152
			c0.623-3.417-0.311,4.038,2.176,5.902c2.484,1.865,59.33-6.833,64.922,0.312c5.59,7.144,5.018,44.95,5.018,44.95"/>
		<path fill="#F9E8B9" d="M128.198,146.881c-17.923-3.492-35.614-30.724-36.312-48.415c0,0-5.12-47.95,2.097-55.166h35.023"/>
		<path fill="#F4E0AE" d="M164.457,80.904c7.49-11.029,9.189,28.77-3.183,24.521"/>
		<path fill="#F4E0AE" d="M127.765,43.3h33.409c7.217,7.217,2.096,55.166,2.096,55.166c-0.699,17.691-18.393,44.925-36.314,48.415"
			/>
		<path fill="#F9E8B9" d="M91.468,80.904c-7.492-11.029-9.189,28.77,3.179,24.521"/>
		<path fill="#C0CFD0" d="M90.124,79.401c0,0,2.228,3.223,2.228,6.02s3.351-6.213,2.296-11.185
			c-1.053-4.968,0.207-10.872,0.207-10.872s22.136-0.31,32.338-4.037c10.201-3.728,16.22-6.524,20.042-10.251
			c3.826-3.728,6-3.417,9.105,0c3.107,3.417,3.659,13.379,4.935,17.095c1.28,3.717,0.967,13.348,1.9,16.765
			c0.933,3.417,0.548,6.137,1.503-0.057c0.437-2.832,1.375-3.666,1.375-3.666s0.709-3.347,0.775-7.859
			c0.11-7.943-0.411-19.099-0.554-19.099c-0.222,0-2.132-8.956-2.132-8.956l-3.438-3.339h-14.812l-54.606,1.909l-3.13,22.834
			L90.124,79.401z"/>
	</g>
</g>
<g id="Beth">
	<g id="BethMask" opacity="0">
		<path fill="#5C4944" d="M159.361,157.234c0,6.468-4.869,11.71-10.875,11.71h-43.559c-6.006,0-10.875-5.242-10.875-11.71v-54.54
			c0-6.468,4.869-11.71,10.875-11.71h43.559c6.006,0,10.875,5.242,10.875,11.71V157.234z"/>
		<path fill="#98D096" d="M190.581,207.213c-0.585-3.806,0.462-18.142-2.635-22.542c-11.124-15.809-42.573-22.249-44.707-25.817
			h-30.479c-2.134,3.568-33.583,10.009-44.707,25.817c-3.097,4.4-2.049,18.736-2.635,22.542c0,0,25.195,20.787,62.805,20.787
			S190.581,207.213,190.581,207.213z"/>
		<path fill="#F9E8B9" d="M142.873,142.036c0,0,1.012,9.293,0,17.847c-1.011,8.557-14.832,10.53-14.832,10.53
			s-13.819-1.974-14.83-10.53c-1.011-8.554,0-17.847,0-17.847"/>
		<path fill="#F2D8AA" d="M113.211,142.036c2.853,3.509,29.555,21.739,29.882,15.544c0.428-8.122-0.22-15.544-0.22-15.544H113.211z"
			/>
		<path fill="#F9E8B9" d="M128.188,151.546c-16.891-3.291-33.564-28.955-34.223-45.629c0,0-4.826-45.19,1.974-51.991h33.011"/>
		<path fill="#F4E0AE" d="M162.357,89.365c7.061-10.393,8.662,27.116-2.996,23.11"/>
		<path fill="#F4E0AE" d="M127.778,53.926h31.485c6.802,6.802,1.976,51.991,1.976,51.991c-0.659,16.674-17.332,42.34-34.223,45.629"
			/>
		<path fill="#F9E8B9" d="M93.569,89.365c-7.061-10.393-8.659,27.116,2.998,23.11"/>
		<g>
			<path fill="#8E7163" d="M113.211,222.528c-10.235-11.766-8.597-33.125-4.855-46.486c5.286-18.879-5.363-33.926-12.094-50.83
				c-6.42-16.115,3.385-30.556,6.061-46.399c1.706-10.084,33.246-41.734,34.463-39.562c-3.623-6.464-30.179-0.189-35.732,0.809
				c-26.888,4.835-28.111,41.844-21.037,61.855c9.032,25.55,13.572,36.394,10.866,64.85
				C88.917,187.434,96.229,209.977,113.211,222.528C111.116,220.122,113.211,222.528,113.211,222.528z"/>
			<path fill="#8E7163" d="M140.122,222.528c3.117-12.1,8.597-33.125,4.855-46.486c-5.286-18.879,5.363-33.926,12.095-50.83
				c6.42-16.114-3.385-30.555-6.061-46.398c-1.707-10.085-33.247-41.734-34.463-39.561c3.623-6.465,30.178-0.191,35.732,0.808
				c26.888,4.835,28.112,41.844,21.038,61.854c-9.033,25.55-13.572,36.394-10.867,64.85
				C164.416,187.434,155.084,207.63,140.122,222.528C151.491,211.209,140.122,222.528,140.122,222.528z"/>
			<path fill="#8E7163" d="M103.088,39.491c0,0-0.282,17.694,20.689,30.056c16.783,9.895,29.792,12.444,44.111,8.588
				c10.145-2.732,6.633-16.593,4.682-23.715c-1.951-7.123-12.193-18.027-32.649-24.297
				C133.926,28.285,118.439,23.488,103.088,39.491z"/>
		</g>
		<path fill="#98D096" d="M98.29,123.842c0.626,2.234-0.426,4.482-2.347,5.021l-5.016,1.404c-1.921,0.537-3.986-0.842-4.611-3.076
			l0,0c-0.625-2.237,0.425-4.483,2.347-5.021l5.016-1.404C95.6,120.229,97.666,121.605,98.29,123.842L98.29,123.842z"/>
		<path fill="#98D096" d="M166.941,128.469c-0.728,2.205-2.853,3.483-4.748,2.859l-4.945-1.631c-1.896-0.625-2.84-2.919-2.113-5.124
			l0,0c0.728-2.204,2.852-3.485,4.746-2.858l4.945,1.631C166.722,123.97,167.668,126.264,166.941,128.469L166.941,128.469z"/>
	</g>
</g>
<g id="Tasha">
	<g id="TashaMask" opacity="1">
		<path fill="#654F42" d="M180.355,67.915c0,22.044-23.885,48.517-53.352,48.517c-29.465,0-53.352-26.472-53.352-48.517
			C73.652,45.87,97.539,28,127.004,28S180.355,45.87,180.355,67.915z"/>
		<path fill="#92D7E6" d="M191.326,206.967c-0.593-3.852,0.47-18.355-2.666-22.812c-11.258-15.996-43.078-22.514-45.24-26.124
			h-30.84c-2.162,3.61-33.982,10.128-45.24,26.124c-3.136,4.456-2.074,18.96-2.666,22.812c0,0,25.496,21.033,63.554,21.033
			S191.326,206.967,191.326,206.967z"/>
		<path fill="#F9E8B9" d="M143.049,141.014c0,0,1.023,9.402,0,18.061c-1.022,8.656-15.006,10.656-15.006,10.656
			s-13.986-2-15.009-10.656c-1.023-8.658,0-18.061,0-18.061"/>
		<path fill="#F2D8AA" d="M113.034,141.014c2.886,3.551,29.91,21.998,30.238,15.729c0.434-8.218-0.223-15.729-0.223-15.729H113.034z
			"/>
		<path fill="#F9E8B9" d="M128.188,150.637c-17.092-3.331-33.964-29.301-34.63-46.173c0,0-4.566-30.164,3.191-36.854l15.271-9.711
			l16.939-6.044"/>
		<path fill="#F4E0AE" d="M162.769,87.717c7.145-10.519,8.763,27.438-3.034,23.385"/>
		<path fill="#F4E0AE" d="M127.774,51.854l31.96,12.823c6.883,6.881,1.9,39.788,1.9,39.788
			c-0.667,16.871-17.539,42.844-34.631,46.172"/>
		<path fill="#F9E8B9" d="M96.192,111.102c-11.796,4.053-10.176-33.904-3.032-23.385"/>
		<path fill="#92D7E6" d="M92.211,86.566c0,0,6.004-31.582,35.79-31.582s34.937,32.499,34.937,32.499l2.256-1.613
			c0,0,3.044-38.135-37.192-38.135c-40.238,0-37.912,38.132-37.912,38.132L92.211,86.566z"/>
	</g>
	<g>
		<path d="M85.773,268.031v3.438l-3.047,0.586v14.844c0,1.875,0.504,3.278,1.514,4.209c1.009,0.932,2.393,1.396,4.15,1.396
			c1.784,0,3.184-0.462,4.199-1.387c1.016-0.924,1.523-2.33,1.523-4.219v-14.844l-3.027-0.586v-3.438h11.778v3.438l-3.047,0.586
			v14.844c0,3.19-1.053,5.651-3.155,7.383c-2.103,1.732-4.86,2.598-8.271,2.598c-3.398,0-6.143-0.865-8.232-2.598
			c-2.09-1.731-3.135-4.192-3.135-7.383v-14.844l-3.027-0.586v-3.438h3.027h5.703H85.773z"/>
		<path d="M121.926,282.602h-3.828l-0.605-2.637c-0.391-0.312-0.882-0.572-1.475-0.781c-0.593-0.208-1.247-0.312-1.963-0.312
			c-1.003,0-1.797,0.225-2.383,0.674s-0.879,1.013-0.879,1.689c0,0.639,0.28,1.169,0.84,1.592c0.56,0.424,1.68,0.798,3.359,1.123
			c2.617,0.521,4.558,1.286,5.82,2.295c1.263,1.01,1.895,2.399,1.895,4.17c0,1.901-0.817,3.454-2.451,4.658
			c-1.634,1.205-3.786,1.807-6.455,1.807c-1.628,0-3.122-0.238-4.482-0.713s-2.568-1.155-3.623-2.041l-0.059-4.746h3.984
			l0.781,2.754c0.339,0.287,0.801,0.498,1.387,0.635s1.198,0.205,1.836,0.205c1.159,0,2.041-0.208,2.646-0.625
			c0.605-0.416,0.908-0.982,0.908-1.699c0-0.625-0.306-1.165-0.918-1.621c-0.612-0.455-1.738-0.859-3.379-1.211
			c-2.487-0.508-4.365-1.26-5.635-2.256s-1.904-2.354-1.904-4.072c0-1.771,0.729-3.297,2.188-4.58
			c1.458-1.282,3.535-1.924,6.23-1.924c1.641,0,3.193,0.222,4.658,0.664c1.465,0.443,2.614,1.01,3.447,1.699L121.926,282.602z"/>
		<path d="M135.383,296.879c-3.047,0-5.48-0.977-7.304-2.93c-1.823-1.953-2.734-4.434-2.734-7.441v-0.781
			c0-3.138,0.862-5.723,2.588-7.754c1.726-2.031,4.041-3.04,6.943-3.027c2.852,0,5.066,0.859,6.641,2.578
			c1.576,1.719,2.363,4.043,2.363,6.973v3.105h-12.617l-0.039,0.117c0.105,1.394,0.57,2.539,1.396,3.438
			c0.828,0.898,1.951,1.348,3.369,1.348c1.264,0,2.312-0.127,3.145-0.381c0.834-0.254,1.746-0.654,2.734-1.201l1.543,3.516
			c-0.871,0.69-2.002,1.27-3.389,1.738S137.09,296.879,135.383,296.879z M134.875,279.34c-1.055,0-1.887,0.404-2.5,1.211
			c-0.611,0.808-0.988,1.869-1.133,3.184l0.059,0.098h6.992v-0.508c0-1.211-0.283-2.178-0.85-2.9S136.021,279.34,134.875,279.34z"/>
		<path d="M147.004,293.051l2.734-0.586v-13.105l-3.027-0.586v-3.438h8.34l0.254,3.086c0.496-1.094,1.133-1.946,1.914-2.559
			c0.781-0.611,1.688-0.918,2.715-0.918c0.301,0,0.615,0.023,0.947,0.068c0.332,0.046,0.609,0.102,0.83,0.166l-0.605,5.195
			l-2.344-0.059c-0.832,0-1.523,0.163-2.07,0.488c-0.547,0.326-0.963,0.788-1.25,1.387v10.273l2.734,0.586v3.418h-11.172V293.051z"
			/>
		<path d="M180.656,282.602h-3.828l-0.605-2.637c-0.391-0.312-0.881-0.572-1.475-0.781c-0.592-0.208-1.246-0.312-1.963-0.312
			c-1.002,0-1.797,0.225-2.383,0.674s-0.879,1.013-0.879,1.689c0,0.639,0.281,1.169,0.84,1.592c0.561,0.424,1.68,0.798,3.359,1.123
			c2.617,0.521,4.559,1.286,5.82,2.295c1.264,1.01,1.895,2.399,1.895,4.17c0,1.901-0.816,3.454-2.451,4.658
			c-1.633,1.205-3.785,1.807-6.455,1.807c-1.627,0-3.121-0.238-4.482-0.713c-1.359-0.475-2.568-1.155-3.623-2.041l-0.059-4.746
			h3.984l0.781,2.754c0.34,0.287,0.801,0.498,1.387,0.635s1.199,0.205,1.836,0.205c1.16,0,2.041-0.208,2.646-0.625
			c0.605-0.416,0.908-0.982,0.908-1.699c0-0.625-0.305-1.165-0.918-1.621c-0.611-0.455-1.738-0.859-3.379-1.211
			c-2.486-0.508-4.365-1.26-5.635-2.256s-1.904-2.354-1.904-4.072c0-1.771,0.73-3.297,2.188-4.58
			c1.459-1.282,3.535-1.924,6.23-1.924c1.641,0,3.193,0.222,4.658,0.664c1.465,0.443,2.615,1.01,3.447,1.699L180.656,282.602z"/>
	</g>
</g>
</svg>
