<?xml version="1.0" encoding="utf-8"?>
<!-- Generator: Adobe Illustrator 15.0.2, SVG Export Plug-In . SVG Version: 6.00 Build 0)  -->
<!DOCTYPE svg PUBLIC "-//W3C//DTD SVG 1.1//EN" "http://www.w3.org/Graphics/SVG/1.1/DTD/svg11.dtd">
<svg version="1.1" xmlns="http://www.w3.org/2000/svg" xmlns:xlink="http://www.w3.org/1999/xlink" x="0px" y="0px" width="256px"
	 height="300.334px" viewBox="0 0 256 300.334" enable-background="new 0 0 256 300.334" xml:space="preserve">
<g id="Background">
	<circle fill="#CBBFA8" cx="128" cy="128" r="128"/>
</g>
<g id="Stand">
	<g>
		<g>
			<path fill="#6F7B84" d="M145.31,192.198c-3.194,0-5.786-2.591-5.786-5.786v-32.186c0-3.195,2.592-5.786,5.786-5.786h2.261v-1.216
				h-39.139v1.216h2.261c3.195,0,5.786,2.591,5.786,5.786v32.186c0,3.195-2.591,5.786-5.786,5.786h-2.261v3.89h39.139v-3.89H145.31z
				"/>
		</g>
	</g>
</g>
<g id="Screen">
	<rect x="39.433" y="67.374" fill="#FCFAE7" width="177.101" height="78.361"/>
</g>
<g id="FacePlate">
	<path fill="#FCFAE7" d="M223.904,150.856v22.657c0,3.195-2.59,5.785-5.786,5.785H37.883c-3.196,0-5.786-2.59-5.786-5.785v-22.657"
		/>
	<circle fill="#6F7B84" cx="128.001" cy="164.835" r="4.984"/>
</g>
<g id="App">
	<rect id="OrangeBar3" x="163.516" y="92.37" fill="#E5A024" width="44.327" height="3.361"/>
	<rect id="OrangeBar2" x="163.516" y="85.962" fill="#E5A024" width="44.327" height="3.361"/>
	<rect id="OrangeBar1" x="163.516" y="79.555" fill="#E5A024" width="44.327" height="3.361"/>
	<rect id="PinkBar3" x="105.836" y="92.37" fill="#CC79A7" width="44.328" height="3.361"/>
	<rect id="PinkBar2" x="105.836" y="85.962" fill="#CC79A7" width="44.328" height="3.361"/>
	<rect id="PinkBar1" x="105.836" y="79.555" fill="#CC79A7" width="44.328" height="3.361"/>
	<rect id="BlueBar3" x="48.157" y="92.37" fill="#0072B2" width="44.328" height="3.361"/>
	<rect id="BlueBar2" x="48.157" y="85.962" fill="#0072B2" width="44.328" height="3.361"/>
	<rect id="BlueBar1" x="48.157" y="79.555" fill="#0072B2" width="44.328" height="3.361"/>
	
		<rect x="163.516" y="119.805" fill="#E5A024" stroke="#FBF9E8" stroke-width="2" stroke-miterlimit="10" width="44.327" height="16.391"/>
	
		<rect x="163.516" y="136.195" fill="#E5A024" stroke="#FBF9E8" stroke-width="2" stroke-miterlimit="10" width="44.327" height="14.661"/>
	
		<rect id="SecondOrangeSquare" x="163.516" y="103.714" fill="#E5A024" stroke="#FBF9E8" stroke-width="2" stroke-miterlimit="10" width="44.327" height="16.39"/>
	
		<rect id="TopOrangeSquare" x="132.983" y="103.714" fill="#E5A024" stroke="#FBF9E8" stroke-width="2" stroke-miterlimit="10" width="74.859" height="44.752"/>
	
		<rect x="85.587" y="103.668" fill="#0072B2" stroke="#FBF9E8" stroke-width="2" stroke-miterlimit="10" width="37.43" height="24.159"/>
	
		<rect x="48.157" y="128" fill="#0072B2" stroke="#FBF9E8" stroke-width="2" stroke-miterlimit="10" width="74.86" height="21.719"/>
	
		<rect id="TopBlueSquare" x="48.157" y="103.714" fill="#0072B2" stroke="#FBF9E8" stroke-width="2" stroke-miterlimit="10" width="74.86" height="44.752"/>
	<g>
		<path d="M76.924,288.051l2.031-0.293l8.652-24.727h5.84l8.594,24.727l2.031,0.293v3.418h-9.688v-3.418l1.973-0.352l-1.25-3.906
			h-9.219l-1.25,3.906l1.973,0.352v3.418h-9.688V288.051z M87.236,279.594h6.524l-3.204-10.02h-0.117L87.236,279.594z"/>
		<path d="M105.655,273.773v-3.438h8.281l0.273,2.461c0.625-0.911,1.374-1.614,2.246-2.109c0.872-0.494,1.888-0.742,3.047-0.742
			c2.617,0,4.648,1.022,6.094,3.066c1.445,2.045,2.168,4.733,2.168,8.066v0.41c0,3.125-0.723,5.639-2.168,7.539
			c-1.445,1.901-3.464,2.852-6.055,2.852c-1.106,0-2.09-0.205-2.949-0.615s-1.595-1.012-2.207-1.807v6.113l2.754,0.586v3.438
			h-11.191v-3.438l2.754-0.586v-21.211L105.655,273.773z M122.061,281.078c0-1.992-0.332-3.606-0.996-4.844
			c-0.664-1.236-1.68-1.855-3.047-1.855c-0.859,0-1.592,0.176-2.197,0.527s-1.084,0.854-1.436,1.504v9.258
			c0.352,0.6,0.83,1.055,1.436,1.367s1.351,0.469,2.236,0.469c1.38,0,2.393-0.54,3.037-1.621c0.645-1.08,0.967-2.545,0.967-4.395
			V281.078z"/>
		<path d="M129.873,273.773v-3.438h8.281l0.273,2.461c0.625-0.911,1.375-1.614,2.246-2.109c0.873-0.494,1.889-0.742,3.047-0.742
			c2.617,0,4.648,1.022,6.094,3.066c1.445,2.045,2.168,4.733,2.168,8.066v0.41c0,3.125-0.723,5.639-2.168,7.539
			c-1.445,1.901-3.463,2.852-6.055,2.852c-1.105,0-2.09-0.205-2.949-0.615s-1.594-1.012-2.207-1.807v6.113l2.754,0.586v3.438
			h-11.191v-3.438l2.754-0.586v-21.211L129.873,273.773z M146.279,281.078c0-1.992-0.332-3.606-0.996-4.844
			c-0.664-1.236-1.68-1.855-3.047-1.855c-0.859,0-1.592,0.176-2.197,0.527s-1.084,0.854-1.436,1.504v9.258
			c0.352,0.6,0.83,1.055,1.436,1.367s1.352,0.469,2.236,0.469c1.381,0,2.393-0.54,3.037-1.621c0.645-1.08,0.967-2.545,0.967-4.395
			V281.078z"/>
		<path d="M171.768,277.602h-3.828l-0.605-2.637c-0.391-0.312-0.881-0.572-1.475-0.781c-0.592-0.208-1.246-0.312-1.963-0.312
			c-1.002,0-1.797,0.225-2.383,0.674s-0.879,1.013-0.879,1.689c0,0.639,0.281,1.169,0.84,1.592c0.561,0.424,1.68,0.798,3.359,1.123
			c2.617,0.521,4.559,1.286,5.82,2.295c1.264,1.01,1.895,2.399,1.895,4.17c0,1.901-0.816,3.454-2.451,4.658
			c-1.633,1.205-3.785,1.807-6.455,1.807c-1.627,0-3.121-0.238-4.482-0.713c-1.359-0.475-2.568-1.155-3.623-2.041l-0.059-4.746
			h3.984l0.781,2.754c0.34,0.287,0.801,0.498,1.387,0.635s1.199,0.205,1.836,0.205c1.16,0,2.041-0.208,2.646-0.625
			c0.605-0.416,0.908-0.982,0.908-1.699c0-0.625-0.305-1.165-0.918-1.621c-0.611-0.455-1.738-0.859-3.379-1.211
			c-2.486-0.508-4.365-1.26-5.635-2.256s-1.904-2.354-1.904-4.072c0-1.771,0.73-3.297,2.188-4.58
			c1.459-1.282,3.535-1.924,6.23-1.924c1.641,0,3.193,0.222,4.658,0.664c1.465,0.443,2.615,1.01,3.447,1.699L171.768,277.602z"/>
	</g>
</g>
<g id="Frame">
	<path fill="#4A5361" d="M218.118,59.912H37.883c-3.196,0-5.786,2.59-5.786,5.786v87.323l191.807-0.243v-87.08
		C223.904,62.502,221.314,59.912,218.118,59.912z M215.517,144.706H40.484v-76.48h175.032V144.706z"/>
</g>
</svg>
