<?xml version="1.0" encoding="utf-8"?>
<!-- Generator: Adobe Illustrator 15.0.0, SVG Export Plug-In . SVG Version: 6.00 Build 0)  -->
<!DOCTYPE svg PUBLIC "-//W3C//DTD SVG 1.1//EN" "http://www.w3.org/Graphics/SVG/1.1/DTD/svg11.dtd">
<svg version="1.1" id="Layer_1" xmlns="http://www.w3.org/2000/svg" xmlns:xlink="http://www.w3.org/1999/xlink" x="0px" y="0px"
	 width="60px" height="70px" viewBox="0 0 60 70" enable-background="new 0 0 60 70" xml:space="preserve">
<rect x="-139.31" y="57.218" fill="none" width="60.009" height="12.782"/>
<text transform="matrix(1 0 0 1 -123.9683 65.0713)"><tspan x="0" y="0" font-family="'HelveticaNeue'" font-size="11">Quer</tspan><tspan x="24.046" y="0" font-family="'HelveticaNeue'" font-size="11">y</tspan></text>
<rect x="-69.751" y="44.718" fill="none" width="59.52" height="25.283"/>
<text transform="matrix(1 0 0 1 -51.502 52.5713)"><tspan x="0" y="0" font-family="'HelveticaNeue'" font-size="11">Data</tspan><tspan x="-11" y="13.2" font-family="'HelveticaNeue'" font-size="11">Synopsis</tspan></text>
<rect x="68.003" y="44.718" fill="none" width="59.52" height="25.282"/>
<text transform="matrix(1 0 0 1 70.1484 52.5713)"><tspan x="0" y="0" font-family="'HelveticaNeue'" font-size="11">Compound</tspan><tspan x="11.929" y="13.2" font-family="'HelveticaNeue'" font-size="11">Digest</tspan></text>
<rect x="135.431" y="44.716" fill="none" width="59.52" height="25.283"/>
<text transform="matrix(1 0 0 1 152.0508 52.5713)"><tspan x="0" y="0" font-family="'HelveticaNeue'" font-size="11">Gene</tspan><tspan x="-2.546" y="13.2" font-family="'HelveticaNeue'" font-size="11">Digest</tspan></text>
<rect x="-0.705" y="57.218" fill="none" width="60.52" height="12.782"/>
<text transform="matrix(1 0 0 1 12.1416 65.0713)" font-family="'HelveticaNeue'" font-size="11">History</text>
<g id="XMLID_13_">
	<g>
		<g id="XMLID_10_">
			<g>
				<path fill="#010101" d="M-94.501,45.722l-9.432-9.432c-2.584,1.691-5.672,2.684-9.006,2.684c-9.09,0-16.441-7.368-16.441-16.458
					c0-9.072,7.35-16.439,16.441-16.439c9.074,0,16.438,7.367,16.438,16.439c0,3.174-0.894,6.13-2.439,8.636l9.498,9.496
					c0.504,0.488,0.081,1.707-0.928,2.715l-1.414,1.418C-92.794,45.786-94.013,46.208-94.501,45.722z M-101.964,22.516
					c0-6.066-4.911-10.977-10.977-10.977c-6.066,0-10.991,4.91-10.991,10.977s4.925,10.993,10.991,10.993
					C-106.875,33.509-101.964,28.583-101.964,22.516z"/>
			</g>
		</g>
	</g>
</g>
<rect x="-139.31" y="136.498" fill="none" width="60.009" height="12.782"/>
<text transform="matrix(1 0 0 1 -116.334 144.3516)" font-family="'HelveticaNeue'" font-size="11">C3</text>
<rect x="-69.279" y="136.498" fill="none" width="60.01" height="12.782"/>
<text transform="matrix(1 0 0 1 -47.8262 144.3516)" font-family="'HelveticaNeue'" font-size="11">API</text>
<rect x="-0.005" y="136.498" fill="none" width="60.01" height="12.782"/>
<text transform="matrix(1 0 0 1 16.6582 144.3516)" font-family="'HelveticaNeue'" font-size="11">Code</text>
<rect x="67.758" y="136.498" fill="none" width="60.01" height="12.782"/>
<text transform="matrix(1 0 0 1 86.252 144.3516)" font-family="'HelveticaNeue'" font-size="11">Data</text>
<g>
	<g>
		<path fill="#010101" d="M-40.312,19.423c0,1.65-1.35,3-3,3h-12c-1.65,0-3-1.35-3-3v-9.417c0-1.65,1.35-3,3-3h12c1.65,0,3,1.35,3,3
			V19.423z"/>
	</g>
	<g>
		<path fill="#010101" d="M-40.312,36.614c0,1.65-1.35,3-3,3h-12c-1.65,0-3-1.35-3-3V27.2c0-1.65,1.35-3,3-3h12c1.65,0,3,1.35,3,3
			V36.614z"/>
	</g>
	<g>
		<path fill="#010101" d="M-20.236,37.073c0,1.65-1.35,3-3,3h-12c-1.65,0-3-1.35-3-3V9.548c0-1.65,1.35-3,3-3h12c1.65,0,3,1.35,3,3
			V37.073z"/>
	</g>
</g>
<g>
	<g>
		<path fill="#010101" d="M30,45.694c-10.793,0-19.574-8.779-19.574-19.573c0-1.108,0.9-2.008,2.008-2.008
			c1.109,0,2.008,0.899,2.008,2.008c0,8.579,6.98,15.56,15.559,15.56c8.58,0,15.559-6.98,15.559-15.56S38.58,10.562,30,10.562
			c-4.156,0-8.064,1.618-11.002,4.558c-0.783,0.783-2.057,0.783-2.84,0c-0.783-0.784-0.783-2.056,0-2.84
			C19.855,8.584,24.771,6.548,30,6.548c10.793,0,19.574,8.78,19.574,19.573C49.574,36.915,40.793,45.694,30,45.694z"/>
		<g>
			<polygon fill="#010101" points="24.973,14.716 18.98,12.298 16.562,6.306 10.799,20.479 			"/>
		</g>
	</g>
	<g>
		<path fill="none" d="M17.578,13.7"/>
	</g>
	<g>
		<path fill="none" d="M12.434,26.121"/>
	</g>
	<path fill="#010101" d="M30,28.129c-0.514,0-1.027-0.196-1.42-0.588c-0.783-0.784-0.783-2.056,0-2.84l7.213-7.212
		c0.783-0.784,2.057-0.784,2.84,0s0.783,2.055,0,2.839l-7.213,7.213C31.027,27.933,30.514,28.129,30,28.129z"/>
	<path fill="#010101" d="M30,34.974c-1.109,0-2.008-0.899-2.008-2.008v-6.845c0-1.108,0.898-2.008,2.008-2.008
		s2.008,0.899,2.008,2.008v6.845C32.008,34.074,31.109,34.974,30,34.974z"/>
</g>
<g>
	<path fill="#010101" d="M82.398,33.834c-1.109,0-2.008-0.898-2.008-2.008V14.362c0-1.109,0.898-2.007,2.008-2.007
		c1.108,0,2.007,0.898,2.007,2.007v17.464C84.405,32.936,83.507,33.834,82.398,33.834z"/>
	<path fill="#010101" d="M112.646,33.834c-1.109,0-2.008-0.898-2.008-2.008V14.362c0-1.109,0.898-2.007,2.008-2.007
		c1.108,0,2.007,0.898,2.007,2.007v17.464C114.653,32.936,113.755,33.834,112.646,33.834z"/>
	<path fill="#010101" d="M82.4,16.173c-0.694,0-1.369-0.36-1.741-1.004c-0.554-0.96-0.225-2.188,0.735-2.743l15.124-8.731
		c0.96-0.554,2.188-0.225,2.742,0.735c0.555,0.96,0.226,2.188-0.734,2.743l-15.124,8.731C83.086,16.086,82.741,16.173,82.4,16.173z"
		/>
	<path fill="#010101" d="M97.524,42.574c-0.694,0-1.369-0.359-1.741-1.004c-0.554-0.961-0.225-2.188,0.735-2.742l15.124-8.731
		c0.96-0.556,2.188-0.226,2.742,0.734s0.226,2.188-0.735,2.743l-15.124,8.73C98.21,42.488,97.864,42.574,97.524,42.574z"/>
	<path fill="#010101" d="M112.645,16.173c-0.341,0-0.687-0.087-1.002-0.27L96.519,7.172c-0.96-0.555-1.289-1.782-0.734-2.743
		c0.554-0.96,1.782-1.289,2.742-0.734l15.123,8.732c0.961,0.554,1.289,1.782,0.735,2.742
		C114.013,15.813,113.338,16.173,112.645,16.173z"/>
	<path fill="#010101" d="M97.521,42.566c-0.341,0-0.686-0.086-1.002-0.27l-15.123-8.73c-0.96-0.555-1.289-1.783-0.735-2.743
		c0.555-0.96,1.782-1.29,2.743-0.734l15.123,8.731c0.96,0.555,1.289,1.781,0.734,2.742C98.89,42.207,98.215,42.566,97.521,42.566z"
		/>
	<path fill="#010101" d="M88.831,20.188c-0.694,0-1.369-0.36-1.741-1.004c-0.554-0.96-0.226-2.188,0.735-2.743l8.693-5.019
		c0.96-0.554,2.188-0.225,2.742,0.735c0.555,0.96,0.226,2.188-0.734,2.742l-8.694,5.019C89.517,20.102,89.171,20.188,88.831,20.188z
		"/>
	<path fill="#010101" d="M105.904,29.525L105.904,29.525c-1.108,0-2.007-0.898-2.007-2.008l0.001-10.039
		c0-1.108,0.898-2.007,2.007-2.007l0,0c1.109,0,2.008,0.899,2.008,2.008l-0.001,10.039
		C107.912,28.627,107.014,29.525,105.904,29.525z"/>
	<path fill="#010101" d="M97.562,35.342c-0.341,0-0.686-0.088-1.002-0.27l-8.693-5.021c-0.96-0.554-1.289-1.781-0.735-2.742
		c0.555-0.959,1.782-1.289,2.743-0.734l8.693,5.02c0.96,0.555,1.289,1.783,0.734,2.742C98.931,34.98,98.256,35.342,97.562,35.342z"
		/>
</g>
<g>
	<path fill="#010101" d="M140.396,18.46c1.423-0.443,2.868-0.693,4.349-0.693c5.254,0,10.081,3.152,15.025,6.982
		c1,0.77,2.004,1.568,3.012,2.379c0.801,0.635,1.603,1.275,2.408,1.906c5.411,4.23,11.055,8.074,17.424,8.074
		c2.467,0,4.823-0.588,7.1-1.543v-3.145c-2.311,1.111-4.659,1.809-7.1,1.809c-5.276,0-10.122-3.178-15.096-7.033
		c-0.975-0.754-1.951-1.533-2.941-2.322c-0.822-0.654-1.648-1.316-2.479-1.965c-4.979-3.889-10.152-7.436-15.912-7.951
		c-0.478-0.045-0.957-0.068-1.441-0.068c-0.487,0-0.963,0.061-1.44,0.104c-1.055,0.096-2.09,0.291-3.107,0.572"/>
	<path fill="#010101" d="M165.19,22.966c0.166,0.133,0.333,0.264,0.498,0.395c0.615,0.494,1.223,0.961,1.831,1.445
		c1.799-1.393,3.586-2.691,5.378-3.785v7.736c0.961,0.629,1.922,1.211,2.882,1.701V19.472c1.776-0.83,3.58-1.398,5.426-1.598v14.332
		c0.443,0.053,0.887,0.102,1.336,0.102c0.516,0,1.033-0.051,1.546-0.119V17.856c1.918,0.207,3.784,0.816,5.626,1.697v-3.139
		c-2.268-0.945-4.612-1.525-7.066-1.525C176.273,14.89,170.615,18.731,165.19,22.966z"/>
	<path fill="#010101" d="M140.683,36.606c1.312,0.322,2.65,0.502,4.023,0.502c6.347,0,11.981-3.812,17.388-8.023
		c-0.198-0.158-0.397-0.318-0.597-0.475c-0.584-0.463-1.157-0.906-1.733-1.365c-1.767,1.365-3.516,2.633-5.276,3.715v-7.613
		c-0.964-0.635-1.925-1.213-2.881-1.711v10.695c0,0.059,0.024,0.107,0.032,0.164c-1.787,0.842-3.599,1.42-5.454,1.625V19.808
		c-0.504-0.07-1.004-0.117-1.507-0.117c-0.461,0-0.919,0.051-1.375,0.105v14.35c-0.923-0.096-1.835-0.283-2.737-0.551"/>
</g>
<rect x="135.431" y="123.996" fill="none" width="59.52" height="25.283"/>
<text transform="matrix(1 0 0 1 140.3418 131.8516)"><tspan x="0" y="0" font-family="'HelveticaNeue'" font-size="11">Download</tspan><tspan x="13.338" y="13.2" font-family="'HelveticaNeue'" font-size="11">Data</tspan></text>
<g>
	<path d="M-89.305,96.751v18.667c0,0.738-0.26,1.364-0.781,1.887c-0.52,0.52-1.148,0.781-1.885,0.781h-34.667
		c-0.735,0-1.364-0.262-1.885-0.781c-0.521-0.522-0.781-1.148-0.781-1.887V96.751c0-0.734,0.26-1.363,0.781-1.883
		c0.521-0.523,1.15-0.781,1.885-0.781h34.667c0.736,0,1.365,0.258,1.885,0.781C-89.564,95.388-89.305,96.017-89.305,96.751z
		 M-91.971,115.418V96.751h-34.667v18.667H-91.971z M-121.305,99.753v1.999c0,0.223-0.111,0.335-0.333,0.335h-2.001
		c-0.222,0-0.333-0.112-0.333-0.335v-1.999c0-0.222,0.111-0.334,0.333-0.334h2.001C-121.416,99.419-121.305,99.531-121.305,99.753z
		 M-118.637,105.085v2c0,0.225-0.112,0.334-0.334,0.334h-4.667c-0.222,0-0.333-0.109-0.333-0.334v-2
		c0-0.222,0.111-0.334,0.333-0.334h4.667C-118.75,104.751-118.637,104.863-118.637,105.085z M-121.305,110.421v1.999
		c0,0.222-0.111,0.334-0.333,0.334h-2.001c-0.222,0-0.333-0.112-0.333-0.334v-1.999c0-0.223,0.111-0.335,0.333-0.335h2.001
		C-121.416,110.086-121.305,110.198-121.305,110.421z M-115.971,99.753v1.999c0,0.223-0.111,0.335-0.333,0.335h-2.001
		c-0.222,0-0.333-0.112-0.333-0.335v-1.999c0-0.222,0.111-0.334,0.333-0.334h2.001C-116.082,99.419-115.971,99.531-115.971,99.753z
		 M-99.971,110.421v1.999c0,0.222-0.111,0.334-0.334,0.334h-18c-0.222,0-0.333-0.112-0.333-0.334v-1.999
		c0-0.223,0.111-0.335,0.333-0.335h18C-100.082,110.086-99.971,110.198-99.971,110.421z M-113.304,105.085v2
		c0,0.225-0.112,0.334-0.334,0.334h-1.999c-0.224,0-0.334-0.109-0.334-0.334v-2c0-0.222,0.111-0.334,0.334-0.334h1.999
		C-113.416,104.751-113.304,104.863-113.304,105.085z M-110.638,99.753v1.999c0,0.223-0.111,0.335-0.333,0.335h-2
		c-0.222,0-0.333-0.112-0.333-0.335v-1.999c0-0.222,0.111-0.334,0.333-0.334h2C-110.749,99.419-110.638,99.531-110.638,99.753z
		 M-107.971,105.085v2c0,0.225-0.111,0.334-0.334,0.334h-2c-0.222,0-0.333-0.109-0.333-0.334v-2c0-0.222,0.111-0.334,0.333-0.334h2
		C-108.082,104.751-107.971,104.863-107.971,105.085z M-105.303,99.753v1.999c0,0.223-0.111,0.335-0.336,0.335h-1.998
		c-0.223,0-0.334-0.112-0.334-0.335v-1.999c0-0.222,0.111-0.334,0.334-0.334h1.998C-105.414,99.419-105.303,99.531-105.303,99.753z
		 M-102.637,105.085v2c0,0.225-0.111,0.334-0.334,0.334h-2c-0.223,0-0.332-0.109-0.332-0.334v-2c0-0.222,0.109-0.334,0.332-0.334h2
		C-102.748,104.751-102.637,104.863-102.637,105.085z M-99.971,99.753v1.999c0,0.223-0.111,0.335-0.334,0.335h-1.998
		c-0.225,0-0.334-0.112-0.334-0.335v-1.999c0-0.222,0.109-0.334,0.334-0.334h1.998C-100.082,99.419-99.971,99.531-99.971,99.753z
		 M-94.637,99.753v7.332c0,0.225-0.111,0.334-0.334,0.334h-4.666c-0.223,0-0.334-0.109-0.334-0.334v-2
		c0-0.222,0.111-0.334,0.334-0.334h2.332v-4.998c0-0.222,0.111-0.334,0.336-0.334h1.998C-94.748,99.419-94.637,99.531-94.637,99.753
		z M-94.637,110.421v1.999c0,0.222-0.111,0.334-0.334,0.334h-1.998c-0.225,0-0.336-0.112-0.336-0.334v-1.999
		c0-0.223,0.111-0.335,0.336-0.335h1.998C-94.748,110.086-94.637,110.198-94.637,110.421z"/>
</g>
<g>
	<path d="M22.504,117.617l-1.097,1.09c-0.146,0.146-0.312,0.221-0.5,0.221s-0.36-0.074-0.504-0.221L10.22,108.523
		c-0.146-0.146-0.22-0.312-0.22-0.504c0-0.188,0.073-0.356,0.22-0.5l10.184-10.188c0.144-0.144,0.315-0.217,0.504-0.217
		s0.354,0.073,0.5,0.217l1.097,1.093c0.144,0.147,0.217,0.312,0.217,0.504c0,0.188-0.073,0.357-0.217,0.501l-8.594,8.59l8.594,8.591
		c0.144,0.146,0.217,0.315,0.217,0.503C22.721,117.302,22.647,117.471,22.504,117.617z M35.42,94.294l-8.153,28.22
		c-0.058,0.188-0.173,0.328-0.338,0.424c-0.166,0.096-0.338,0.114-0.514,0.054l-1.354-0.369c-0.191-0.058-0.332-0.173-0.427-0.338
		c-0.096-0.169-0.115-0.348-0.055-0.536l8.15-28.219c0.058-0.188,0.172-0.332,0.341-0.427c0.169-0.093,0.338-0.112,0.514-0.055
		l1.354,0.373c0.188,0.058,0.332,0.172,0.427,0.338C35.458,93.928,35.478,94.106,35.42,94.294z M49.779,108.523l-10.184,10.184
		c-0.146,0.146-0.312,0.221-0.504,0.221s-0.357-0.074-0.504-0.221l-1.09-1.09c-0.146-0.146-0.22-0.315-0.22-0.504
		c0-0.188,0.073-0.356,0.22-0.503l8.587-8.591l-8.587-8.59c-0.146-0.144-0.22-0.312-0.22-0.501c0-0.191,0.073-0.356,0.22-0.504
		l1.09-1.093c0.146-0.144,0.312-0.217,0.504-0.217s0.357,0.073,0.504,0.217l10.184,10.188c0.144,0.144,0.221,0.312,0.221,0.5
		C50,108.211,49.923,108.377,49.779,108.523z"/>
</g>
<g>
	<path d="M-19.274,103.247v5.781c0,0.209-0.068,0.41-0.209,0.6c-0.141,0.19-0.312,0.304-0.521,0.338l-4.815,0.729
		c-0.334,0.938-0.669,1.728-1.018,2.37c0.607,0.869,1.534,2.065,2.787,3.593c0.175,0.209,0.259,0.429,0.259,0.653
		c0,0.224-0.076,0.425-0.235,0.6c-0.468,0.642-1.326,1.58-2.575,2.811c-1.254,1.234-2.066,1.85-2.45,1.85
		c-0.209,0-0.433-0.08-0.676-0.235l-3.597-2.811c-0.76,0.398-1.55,0.729-2.37,0.987c-0.273,2.362-0.527,3.977-0.752,4.847
		c-0.121,0.486-0.433,0.729-0.938,0.729h-5.785c-0.242,0-0.455-0.075-0.638-0.224c-0.183-0.145-0.281-0.334-0.296-0.559
		l-0.729-4.793c-0.851-0.277-1.633-0.596-2.347-0.961l-3.669,2.784c-0.175,0.155-0.392,0.235-0.653,0.235
		c-0.243,0-0.46-0.095-0.649-0.285c-2.188-1.982-3.62-3.44-4.296-4.375c-0.121-0.175-0.182-0.376-0.182-0.6
		c0-0.209,0.068-0.406,0.205-0.601c0.262-0.364,0.706-0.941,1.329-1.731s1.094-1.401,1.405-1.835
		c-0.468-0.869-0.824-1.728-1.067-2.578l-4.767-0.703c-0.224-0.034-0.406-0.145-0.547-0.326c-0.137-0.183-0.205-0.388-0.205-0.611
		v-5.781c0-0.208,0.068-0.41,0.205-0.6c0.141-0.19,0.304-0.304,0.494-0.338l4.846-0.729c0.243-0.798,0.581-1.599,1.018-2.396
		c-0.698-0.991-1.625-2.188-2.787-3.593c-0.175-0.209-0.263-0.418-0.263-0.627c0-0.175,0.08-0.372,0.236-0.6
		c0.451-0.623,1.306-1.558,2.563-2.8c1.261-1.241,2.081-1.86,2.461-1.86c0.228,0,0.452,0.087,0.676,0.258l3.597,2.788
		c0.764-0.398,1.554-0.729,2.37-0.987c0.277-2.362,0.527-3.977,0.756-4.847c0.121-0.486,0.433-0.729,0.934-0.729h5.785
		c0.243,0,0.455,0.075,0.638,0.22c0.183,0.148,0.281,0.338,0.3,0.562l0.729,4.793c0.851,0.277,1.633,0.596,2.343,0.961l3.696-2.784
		c0.159-0.159,0.364-0.235,0.626-0.235c0.225,0,0.444,0.087,0.649,0.258c2.241,2.07,3.677,3.544,4.3,4.429
		c0.121,0.141,0.182,0.33,0.182,0.573c0,0.209-0.068,0.406-0.208,0.601c-0.263,0.364-0.703,0.941-1.326,1.731
		c-0.626,0.79-1.094,1.401-1.409,1.835c0.452,0.869,0.81,1.72,1.067,2.552l4.767,0.729c0.225,0.034,0.406,0.145,0.547,0.326
		C-19.343,102.818-19.274,103.023-19.274,103.247z M-34.562,110.802c1.303-1.303,1.952-2.875,1.952-4.717
		c0-1.839-0.649-3.411-1.952-4.714s-2.875-1.952-4.713-1.952c-1.842,0-3.41,0.649-4.717,1.952c-1.299,1.303-1.952,2.875-1.952,4.714
		c0,1.842,0.653,3.414,1.952,4.717c1.307,1.299,2.875,1.952,4.717,1.952C-37.437,112.754-35.864,112.101-34.562,110.802z"/>
</g>
<g>
	<path d="M114.19,102.754v20.83c0,0.695-0.243,1.287-0.729,1.773c-0.486,0.485-1.078,0.729-1.77,0.729H83.357
		c-0.695,0-1.287-0.243-1.773-0.729c-0.486-0.486-0.729-1.078-0.729-1.773V88.585c0-0.691,0.243-1.283,0.729-1.77
		c0.486-0.485,1.078-0.729,1.773-0.729h14.165v14.166c0,0.694,0.243,1.287,0.729,1.772c0.485,0.486,1.075,0.729,1.773,0.729H114.19z
		 M114.11,99.42h-13.254V86.166c1.425,0.258,2.571,0.824,3.438,1.689l8.126,8.127C113.286,96.853,113.849,97.995,114.11,99.42z"/>
</g>
<g>
	<path d="M176.954,118.086h-22.667c-5.146,0-9.333-4.188-9.333-9.334c0-3.624,2.104-6.916,5.375-8.438
		c-0.021-0.312-0.042-0.604-0.042-0.896c0-5.896,4.771-10.667,10.667-10.667c4.333,0,8.229,2.625,9.875,6.625
		c0.957-0.833,2.187-1.291,3.458-1.291c2.937,0,5.333,2.396,5.333,5.333c0,1.021-0.291,2.021-0.854,2.875
		c3.625,0.854,6.188,4.083,6.188,7.792C184.954,114.502,181.37,118.086,176.954,118.086z M170.954,104.752h-4.667v-7.334
		c0-0.354-0.312-0.666-0.666-0.666h-4.001c-0.354,0-0.666,0.312-0.666,0.666v7.334h-4.668c-0.374,0-0.666,0.312-0.666,0.666
		c0,0.168,0.062,0.355,0.188,0.479l7.333,7.334c0.126,0.125,0.292,0.187,0.479,0.187c0.166,0,0.354-0.062,0.479-0.187l7.312-7.312
		c0.124-0.146,0.208-0.313,0.208-0.502C171.62,105.044,171.329,104.752,170.954,104.752z"/>
</g>
<g>
	<path d="M-85.804,213.238c0,5.607-3.587,10.152-8.012,10.152h-30.978c-4.425,0-8.012-4.545-8.012-10.152V173.99
		c0-5.607,3.587-10.152,8.012-10.152h30.978c4.425,0,8.012,4.545,8.012,10.152V213.238z"/>
	<rect x="-139.064" y="168.613" fill="none" width="59.519" height="54.002"/>
	<text transform="matrix(1 0 0 1 -125.292 176.4668)"><tspan x="0" y="0" fill="#FFFFFF" font-family="'HelveticaNeue'" font-size="11">LINCS</tspan><tspan x="2.238" y="13.201" fill="#FFFFFF" font-family="'HelveticaNeue'" font-size="11">Trans</tspan><tspan x="-0.512" y="26.4" fill="#FFFFFF" font-family="'HelveticaNeue'" font-size="11">Center</tspan><tspan x="-1.424" y="39.602" fill="#FFFFFF" font-family="'HelveticaNeue'" font-size="11">Project</tspan></text>
</g>
<g>
	<path d="M-15.773,213.238c0,5.607-3.587,10.152-8.012,10.152h-30.978c-4.425,0-8.012-4.545-8.012-10.152V173.99
		c0-5.607,3.587-10.152,8.012-10.152h30.978c4.425,0,8.012,4.545,8.012,10.152V213.238z"/>
	<rect x="-69.034" y="174.088" fill="none" width="59.52" height="39.053"/>
	<text transform="matrix(1 0 0 1 -55.2627 181.9404)"><tspan x="0" y="0" fill="#FFFFFF" font-family="'HelveticaNeue'" font-size="11">LINCS</tspan><tspan x="3.966" y="13.2" fill="#FFFFFF" font-family="'HelveticaNeue'" font-size="11">Joint</tspan><tspan x="-1.425" y="26.4" fill="#FFFFFF" font-family="'HelveticaNeue'" font-size="11">Project</tspan></text>
</g>
</svg>
