<?xml version="1.0" encoding="utf-8"?>
<!-- Generator: Adobe Illustrator 15.0.2, SVG Export Plug-In . SVG Version: 6.00 Build 0)  -->
<!DOCTYPE svg PUBLIC "-//W3C//DTD SVG 1.1//EN" "http://www.w3.org/Graphics/SVG/1.1/DTD/svg11.dtd">
<svg version="1.1" id="Layer_1" xmlns="http://www.w3.org/2000/svg" xmlns:xlink="http://www.w3.org/1999/xlink" x="0px" y="0px"
	 width="600px" height="600px" viewBox="0 0 600 600" enable-background="new 0 0 600 600" xml:space="preserve">
<line fill="#EE2A69" stroke="#F7941E" stroke-width="2" x1="2.046" y1="19.232" x2="9.568" y2="23.568"/>
<polyline fill="none" stroke="#F7941E" stroke-width="2" points="25.32,23.568 17.268,19.232 9.568,23.568 "/>
<polygon fill="none" stroke="#F7941E" stroke-width="2" points="33.02,37.285 41.073,32.949 41.073,23.568 33.02,19.232 
	25.32,23.568 25.32,32.949 "/>
<line fill="none" stroke="#F7941E" stroke-width="2" x1="41.073" y1="32.949" x2="45.763" y2="35.603"/>
<line fill="none" stroke="#F7941E" stroke-width="2" x1="53.904" y1="35.603" x2="57.799" y2="32.949"/>
<line fill="none" stroke="#F7941E" stroke-width="2" x1="49.834" y1="41.533" x2="49.834" y2="46.488"/>
<line fill="none" stroke="#F7941E" stroke-width="2" x1="15.232" y1="13.391" x2="15.232" y2="20.293"/>
<line fill="none" stroke="#F7941E" stroke-width="2" x1="19.215" y1="13.391" x2="19.215" y2="20.293"/>
<line fill="none" stroke="#F7941E" stroke-width="2" x1="28.241" y1="25.603" x2="33.02" y2="22.86"/>
<line fill="none" stroke="#F7941E" stroke-width="2" x1="28.241" y1="31.179" x2="33.02" y2="33.833"/>
<line fill="none" stroke="#F7941E" stroke-width="2" x1="37.799" y1="25.603" x2="37.799" y2="31.179"/>
<line fill="none" stroke="#F7941E" stroke-width="2" x1="9.568" y1="23.568" x2="9.568" y2="31.179"/>
<circle fill="none" stroke="#F7941E" stroke-width="2" cx="17.356" cy="9.143" r="2.655"/>
<circle fill="none" stroke="#F7941E" stroke-width="2" cx="49.922" cy="37.285" r="2.567"/>
</svg>
