<?xml version="1.0" encoding="utf-8"?>
<!-- Generator: Adobe Illustrator 15.0.2, SVG Export Plug-In . SVG Version: 6.00 Build 0)  -->
<!DOCTYPE svg PUBLIC "-//W3C//DTD SVG 1.1//EN" "http://www.w3.org/Graphics/SVG/1.1/DTD/svg11.dtd">
<svg version="1.1" id="Layer_1" xmlns="http://www.w3.org/2000/svg" xmlns:xlink="http://www.w3.org/1999/xlink" x="0px" y="0px"
	 width="600px" height="600px" viewBox="0 0 600 600" enable-background="new 0 0 600 600" xml:space="preserve">
<path fill="none" stroke="#F7941E" stroke-width="2" d="M2.046,19.232l7.522,4.336 M25.32,23.568l-8.052-4.336l-7.7,4.336
	 M33.02,37.285l8.053-4.336v-9.381l-8.053-4.336l-7.7,4.336v9.381L33.02,37.285z M41.073,32.949l4.69,2.654 M53.904,35.603
	l3.895-2.654 M49.834,41.533v4.955 M15.232,13.391v6.902 M19.215,13.391v6.902 M28.241,25.603l4.779-2.743 M28.241,31.179
	l4.779,2.654 M37.799,25.603v5.576 M9.568,23.568v7.611 M17.356,6.488c1.466,0,2.655,1.189,2.655,2.655s-1.189,2.655-2.655,2.655
	s-2.655-1.188-2.655-2.655S15.89,6.488,17.356,6.488z M49.922,34.718c1.418,0,2.567,1.149,2.567,2.567
	c0,1.417-1.149,2.567-2.567,2.567c-1.417,0-2.567-1.149-2.567-2.567C47.355,35.867,48.504,34.718,49.922,34.718z"/>
</svg>
