<?xml version="1.0" encoding="utf-8"?>
<!-- Generator: Adobe Illustrator 15.0.2, SVG Export Plug-In . SVG Version: 6.00 Build 0)  -->
<!DOCTYPE svg PUBLIC "-//W3C//DTD SVG 1.1//EN" "http://www.w3.org/Graphics/SVG/1.1/DTD/svg11.dtd">
<svg version="1.1" id="Layer_1" xmlns="http://www.w3.org/2000/svg" xmlns:xlink="http://www.w3.org/1999/xlink" x="0px" y="0px"
	 width="600px" height="600px" viewBox="0 0 600 600" enable-background="new 0 0 600 600" xml:space="preserve">
<line fill="#EE2A69" stroke="#EE2A69" stroke-width="4" x1="249.167" y1="285.167" x2="263.333" y2="293.333"/>
<polyline fill="none" stroke="#EE2A69" stroke-width="4" points="293,293.333 277.833,285.167 263.333,293.333 "/>
<polygon fill="none" stroke="#EE2A69" stroke-width="4" points="307.5,319.167 322.667,311 322.667,293.333 307.5,285.167 
	293,293.333 293,311 "/>
<line fill="none" stroke="#EE2A69" stroke-width="4" x1="322.667" y1="311" x2="331.5" y2="316"/>
<line fill="none" stroke="#EE2A69" stroke-width="4" x1="346.833" y1="316" x2="354.167" y2="311"/>
<line fill="none" stroke="#EE2A69" stroke-width="4" x1="339.167" y1="327.167" x2="339.167" y2="336.5"/>
<line fill="none" stroke="#EE2A69" stroke-width="4" x1="274" y1="274.167" x2="274" y2="287.167"/>
<line fill="none" stroke="#EE2A69" stroke-width="4" x1="281.5" y1="274.167" x2="281.5" y2="287.167"/>
<line fill="none" stroke="#EE2A69" stroke-width="4" x1="298.5" y1="297.167" x2="307.5" y2="292"/>
<line fill="none" stroke="#EE2A69" stroke-width="4" x1="298.5" y1="307.667" x2="307.5" y2="312.667"/>
<line fill="none" stroke="#EE2A69" stroke-width="4" x1="316.5" y1="297.167" x2="316.5" y2="307.667"/>
<line fill="none" stroke="#EE2A69" stroke-width="4" x1="263.333" y1="293.333" x2="263.333" y2="307.667"/>
<circle fill="none" stroke="#EE2A69" stroke-width="4" cx="278" cy="266.167" r="5"/>
<circle fill="none" stroke="#EE2A69" stroke-width="4" cx="339.333" cy="319.166" r="4.833"/>
</svg>
