<?xml version="1.0" encoding="utf-8"?>
<!-- Generator: Adobe Illustrator 15.0.2, SVG Export Plug-In . SVG Version: 6.00 Build 0)  -->
<!DOCTYPE svg PUBLIC "-//W3C//DTD SVG 1.1//EN" "http://www.w3.org/Graphics/SVG/1.1/DTD/svg11.dtd">
<svg version="1.1" id="Layer_1" xmlns="http://www.w3.org/2000/svg" xmlns:xlink="http://www.w3.org/1999/xlink" x="0px" y="0px"
	 width="600px" height="600px" viewBox="0 0 600 600" enable-background="new 0 0 600 600" xml:space="preserve">
<path fill="none" stroke="#F7941E" stroke-width="2" d="M2.046,140.609l79.163,45.632 M246.984,186.241l-84.738-45.632
	l-81.038,45.632 M328.022,330.604l84.754-45.632v-98.731l-84.754-45.632l-81.038,45.632v98.731L328.022,330.604z M412.776,284.972
	l49.357,27.929 M547.807,312.901l40.992-27.929 M504.976,375.312v52.143 M140.818,79.14v72.636 M182.735,79.14v72.636
	 M277.729,207.66l50.293-28.87 M277.729,266.344l50.293,27.929 M378.315,207.66v58.685 M81.208,186.241v80.103 M163.171,6.488
	c15.432,0,27.945,12.513,27.945,27.944s-12.513,27.939-27.945,27.939s-27.939-12.508-27.939-27.939S147.74,6.488,163.171,6.488z
	 M505.9,303.585c14.923,0,27.015,12.097,27.015,27.02c0,14.917-12.092,27.015-27.015,27.015c-14.918,0-27.015-12.098-27.015-27.015
	C478.886,315.682,490.982,303.585,505.9,303.585z"/>
</svg>
